<?xml version="1.0" encoding="UTF-8"?>
<svg id="Layer_1" data-name="Layer 1" xmlns="http://www.w3.org/2000/svg" viewBox="0 0 1465.08 1097.35">
  <defs>
    <style>
      .cls-1 {
        fill: #e1e1e1;
      }

      .cls-1, .cls-2, .cls-3, .cls-4, .cls-5, .cls-6, .cls-7, .cls-8 {
        stroke-width: 0px;
      }

      .cls-2 {
        fill: #ececec;
      }

      .cls-3, .cls-9 {
        fill: #014b92;
      }

      .cls-4 {
        fill: #f6f6f6;
      }

      .cls-10 {
        letter-spacing: -.01em;
      }

      .cls-5 {
        fill: #fff;
      }

      .cls-6 {
        fill: #001b2a;
      }

      .cls-7 {
        fill: #818181;
      }

      .cls-9 {
        font-family: ReligionDemo, 'Religion Demo';
        font-size: 200px;
      }

      .cls-11 {
        letter-spacing: -.03em;
      }

      .cls-8 {
        fill: #c8002a;
      }
    </style>
  </defs>
  <text class="cls-9" transform="translate(513.35 1056.75)"><tspan x="0" y="0">HN </tspan><tspan class="cls-11" x="251.8" y="0">N</tspan><tspan class="cls-10" x="355.6" y="0">O</tspan><tspan x="457.8" y="0">TES</tspan></text>
  <path id="path15135" class="cls-3" d="M102.63,232.06L1.27,266.13l-1.27,25.2,245.98,686.12s314.78-150.96,527.21-108.04c212.43,42.92,239.99-24.24,309.95-31.93,69.95-7.69,270.64,11.04,330.63-9.57,60-20.61,50.8-37.01,50.8-37.01l-267.93-625.09L102.63,232.06Z"/>
  <path id="path16654" class="cls-7" d="M104.67,261.57l-72.25,18.13,239.08,659.27s146.28-83.18,292.83-89.94c146.55-6.76,189.96,9.29,269.11,18.01,79.15,8.72,132,1.21,171.57-23.52,39.57-24.73,88.33-33.07,177.18-29.66,88.85,3.41,204,23.03,257.1-24.42-62.83-121.79-166.52-310.03-166.52-310.03L104.67,261.57Z"/>
  <path id="path6934" class="cls-1" d="M156.99,101.22l-55.91,21.43-36.23,145.42s205.36,521.53,221.46,622.98c110.03-54.14,298.91-184.64,479.47-84.96,93.51,51.62,177.58,26.79,218.68-4.91,41.1-31.7,142.59-27.56,199.02-12.52,56.43,15.04,159.32,32.19,230.55-.69,11.74-33.99,5.35-82.56,5.35-82.56l-228.58-435.31L156.99,101.22Z"/>
  <path id="path13236" class="cls-2" d="M1190.78,270.09L156.98,101.21l-55.9,21.43,241.37,648.82s238.44-191.85,520.08-36.75c111.56-61.1,227.72-84.91,357.69-55.01,100.34,23.08,153.5,40.94,197.66,22.84l-227.09-432.45Z"/>
  <path id="path1547" class="cls-4" d="M727.25,145.01S659.11-26.92,382.35,3.64c-188.27,20.79-235.9,28.64-235.9,28.64l185.94,679.5s98.59-63.47,197.36-69.58c115.29-7.13,234.99,18.45,312.61,90.92,96.74-56.84,274.36-75.51,389.33-27.88,114.96,47.63,181.83,8.66,181.83,8.66l-220.16-626.22s-51.21,27.63-112.25,5.44c-61.04-22.19-283.93-80.41-353.86,51.9h0Z"/>
  <path id="path14736" class="cls-6" d="M230.95,147.9c-3.25-2.58,22.72-34.48,90.34-49.88,37.07-8.6,79.89-11.95,128.86-9.05h.16c49.18,2.89,92.76,11.34,129.56,22.4,62.83,18.72,97.19,46.48,94.84,49.04-2.35,2.57-37.92-18.54-99.68-33.81-36.14-8.83-77.72-15.76-125.18-18.57h-.16c-47.37-2.74-87.45-.73-123.27,5.63-61.39,11.16-92.53,36.58-95.47,34.23h0Z"/>
  <path id="path14740" class="cls-6" d="M267.07,216.91c-1.6-2.3,16.09-15.12,50.96-25.39,36.66-10.8,85.41-16.22,144.83-10.22,0,0,.68.06.69.06,54.77,5.48,109.04,18.5,142.56,27.27,35.73,9.35,57.45,16.27,56.89,18.83-.56,2.56-23.52.27-59.96-5.72-31.12-5.11-91.55-16.56-140.99-21.42l-.66-.06c-57.44-5.48-101.98-2.74-138.5,4.15-34.21,6.45-54.22,14.79-55.82,12.49h0Z"/>
  <path id="path14744" class="cls-6" d="M313.84,306.08c-2.93-4.74,68.69-40.39,169.49-41.05,100.8-.67,181.15,24.25,180.02,29.38-1.13,5.13-82.09-10.52-178.84-10.24-96.75.28-167.75,26.66-170.67,21.91h0Z"/>
  <path id="path14748" class="cls-6" d="M356.83,412.48c-1.91-2.13,12.5-16.01,43.46-28.55,32.39-13.12,77.5-21.93,133.05-19.03l.82.05c51.88,2.68,101.62,13.28,133.61,21.23,33.43,8.3,53.58,15,53.02,17.56-.56,2.56-21.9.51-55.81-4.38-30.98-4.47-83.19-12.99-131.07-15.35l-.79-.04c-52.94-2.43-94.09,3.29-126.5,12.41-30.6,8.61-47.89,18.24-49.79,16.11h0Z"/>
  <path id="path14752" class="cls-6" d="M391.93,495.28c-2.57-4.21,58.66-39.8,153.8-40.45h.36c47.51-.43,87.08,8.83,115.72,20.8,27.56,11.52,41.2,23.45,39.57,25.6-1.64,2.15-17.76-5.54-44.85-13.2-28.54-8.07-64.32-14.27-109.22-14.11h-.34c-86.41.64-152.13,26.12-155.03,21.37h0Z"/>
  <path id="path14756" class="cls-6" d="M389.78,587.42c-1.5-2.36,15.45-13.59,47.82-23.35,34.71-10.46,77.97-16.38,133.32-16.6.94,0,1.88,0,2.82,0,39.33-.18,73.72,3.44,104,10.29,52.59,11.63,78.62,33.02,75.63,36.28-2.32,2.53-30.16-12.89-78.83-20.81-29.43-4.63-61.31-6.84-99.64-6.66.02,0-2.77.03-2.75.03-55.49.56-93.82,3.74-129.64,10.44-32.11,6.01-51.24,12.75-52.75,10.39h0Z"/>
  <path id="path14760" class="cls-6" d="M786.1,175.21c-2.26-1.86,10.68-19.45,42.72-36.84,33.07-17.95,83.04-32.53,144.95-30.09.3,0,.6.02.9.03,118.85,4.71,205.03,53.8,202.47,58.48-2.55,4.68-90.06-35.15-202.42-39.4-.28-.02-.57-.02-.85-.04-57.72-1.97-103.91,8.98-137.03,22.75-31.94,13.28-48.48,26.96-50.75,25.11h0Z"/>
  <path id="path14764" class="cls-6" d="M830.89,245.97c-1.69-1.73,18.93-26.72,73.03-35.11,27.07-4.2,56.97-3.85,90.6.61.81.1,1.62.21,2.42.33,46.07,6.29,93.69,19.69,121.2,27.78,30.25,8.88,48.74,15.04,48.17,17.6-.56,2.56-20.38,1-51.63-4.57-31.25-5.57-73.55-15.67-120.17-21.95-.77-.1-1.54-.21-2.31-.31-32.43-4.22-59.41-5.59-84.72-3.33-47.05,4.21-73.96,21.66-76.6,18.95h0Z"/>
  <path id="path14768" class="cls-6" d="M875.13,319.2c-1.34-2.42,13.77-11.81,42.58-17.99,30.51-6.55,69.69-7.77,116.99-.17l.51.08c36.71,5.78,92.65,19.21,112.67,23.71,28.27,6.35,46.21,9.87,46.08,12.5-.13,2.61-18.53,3.83-48.27.75-29.62-3.07-69.89-11.3-113.46-18.18,0,0-.49-.08-.49-.08-46.05-7.05-80.44-8.12-110.61-5.44-27.76,2.46-44.65,7.24-45.99,4.82h0Z"/>
  <path id="path14772" class="cls-6" d="M878.82,421.37c-1.35-2.42,14.41-12.05,44.16-19.41,30.99-7.67,72.39-11.24,121.71-5h.07c45.26,5.7,90.74,17.66,118.09,25.41,29.5,8.36,47.46,14.44,46.9,17-.56,2.56-19.78,1.08-50.15-3.93-30.37-5.02-71.58-13.95-116.99-19.57h-.07c-47.23-5.8-84.74-4.64-115.55-.77-29.09,3.65-46.81,8.69-48.16,6.27h0Z"/>
  <path id="path14776" class="cls-6" d="M921.99,540.67c-6.04-1.66,2.73-28.91,49.16-44.97,27.89-10.61,60.9-17.3,100.71-20.3,0,0,.82-.06.82-.06,40.32-3.08,75.51-1.47,105.93,3.56,16.69,2.74,29.95,6.3,41.08,10.83,19.08,7.48,25.06,16.76,23.29,18.09-1.67,1.25-9.75-3.99-27.06-8.2-11.09-2.53-22.73-4.2-39.05-5.59-29.63-2.48-61.87-2.63-101.21.34,0,0-.79.06-.79.06-38.9,3.06-69.03,7.79-96.51,15.74-39.34,12.78-52.8,31.49-56.37,30.51h0Z"/>
  <path id="path14780" class="cls-6" d="M923.08,618.03c-1.71-2.69,20.08-18.55,62.9-32.34,31.43-10.12,71.53-19.44,118.08-23.86,110.5-10.5,196.38,13.93,195.25,19.07-1.12,5.09-87.52-10.09-191.8-.17-45.06,4.29-83.73,11.72-115.55,19.12-41.23,9.51-67.17,20.87-68.88,18.18h0Z"/>
  <path id="path129811" class="cls-8" d="M744.76,118.99c-20.55-5.65-40.35,6.89-37.81,29.39,2.54,22.51,56.78,247.05,64.55,277.69,7.78,30.64,10.71,75.51,10.71,75.51l13.36-32.75,21.74,25.98s-1.97-49.79-11.08-86.33c-9.12-36.54-61.33-231.78-64.67-253.32-3.34-21.54-8.85-28.58,3.2-36.17h0Z"/>
  <g>
    <path class="cls-5" d="M760.88,270.47l1.57-.4.81,3.14-3.87,1,1.14,4.42c.48,1.86.21,3.41-.8,4.7-.76.96-1.91,1.7-3.46,2.22v.04s-7.22,1.86-7.22,1.86l-.81-3.14,4.68-1.2h0s1.57-.41,1.57-.41c1.35-.35,2.25-.8,2.7-1.36.35-.44.41-1.06.2-1.89l-1.14-4.42-9.76,2.51-.81-3.14,9.76-2.51v-.02s3.14-.81,3.14-.81v.02s2.3-.59,2.3-.59h0Z"/>
    <path class="cls-5" d="M766.7,286.62c.22.87-.3,1.75-1.17,1.97s-1.75-.3-1.97-1.17c-.22-.87.3-1.75,1.17-1.97s1.75.3,1.97,1.17ZM762.43,286.05l.81,3.14-12.9,3.32-.81-3.14,12.9-3.32Z"/>
    <path class="cls-5" d="M762.22,291.74l1.57-.4.81,3.14-.43.11c.79,1.03.65.75,1.03,2.24.41,1.61.52,2.69-.53,4.32,1.7.91,2.13,1.92,2.55,3.53.45,1.74.52,3.02-.8,4.7-.76.96-1.91,1.7-3.46,2.22v.04s-7.22,1.86-7.22,1.86l-.81-3.14,4.68-1.2h0s1.57-.41,1.57-.41c1.35-.35,2.25-.8,2.7-1.36.35-.44.41-1.06.2-1.89s-.57-1.34-1.09-1.55c-.65-.28-1.64-.24-2.96.09l-6.32,1.62-.81-3.14,4.68-1.2h0s1.57-.41,1.57-.41c1.35-.35,2.25-.8,2.7-1.36.35-.44.41-1.06.2-1.89s-.57-1.34-1.09-1.55c-.65-.28-1.64-.24-2.96.09l-6.32,1.62-.81-3.14,11.33-2.91h0Z"/>
    <path class="cls-5" d="M767.76,322.49l.81,3.14-9.11,2.34-.81-3.14.54-.14c-.53-.63-.94-1.39-1.15-2.24l-.53-2.05c-.69-2.68.61-4.83,2.66-6.13.73-.46,1.54-.81,2.38-1.03s1.72-.3,2.58-.25c2.42.15,4.59,1.4,5.28,4.09l.93,3.62-3.14.81-.93-3.62c-.28-1.08-1.25-1.59-2.34-1.66-.51-.03-1.04.03-1.57.16s-1.03.34-1.45.62c-.92.59-1.53,1.5-1.25,2.59l.53,2.05c.17.65.59,1.18,1.13,1.5.54.32,1.21.44,1.86.27l3.59-.92ZM771.01,325c-.74.19-1.5-.26-1.69-1s.26-1.5,1-1.69,1.5.26,1.69,1-.26,1.5-1,1.69Z"/>
    <path class="cls-5" d="M776.72,325.59l.81,3.14-10.45,2.69c-1.12.29-1.85.66-2.28,1.11-.35.37-.51.84-.55,1.42l-.1,1.61-3.23-.19.1-1.61c.08-1.33.51-2.49,1.43-3.46.85-.89,2.08-1.57,3.81-2.01l10.45-2.69Z"/>
    <path class="cls-5" d="M774.77,334.04l.81,3.14-.43.11c.38.5.68,1.09.9,1.78h.01s.81,3.14.81,3.14h-.02c.28,1.6-.04,2.95-.94,4.09-.76.96-1.91,1.7-3.46,2.22v.04s-7.22,1.86-7.22,1.86l-.81-3.14,4.68-1.2h0s1.57-.41,1.57-.41c1.35-.35,2.25-.8,2.7-1.36.35-.44.41-1.06.2-1.89l-.53-2.07c-.21-.82-.57-1.34-1.09-1.55-.65-.28-1.64-.24-2.96.09l-6.32,1.62-.81-3.14,4.68-1.2h0s1.57-.4,1.57-.4h.05s6.6-1.71,6.6-1.71Z"/>
    <path class="cls-5" d="M760.41,357.04l-.81-3.14,19.01-4.89,1.95,7.58c.69,2.68-.61,4.83-2.66,6.13-.73.46-1.54.81-2.38,1.02s-1.72.3-2.58.25c-2.42-.15-4.59-1.4-5.28-4.09l-.69-2.67,3.14-.81.69,2.67c.28,1.08,1.25,1.59,2.34,1.66.51.03,1.04-.03,1.57-.16s1.03-.34,1.45-.62c.92-.59,1.53-1.5,1.25-2.59l-1.14-4.44-15.87,4.08Z"/>
    <path class="cls-5" d="M782.4,363.72l.81,3.14-.43.11c.38.5.68,1.09.9,1.78h.01s.81,3.14.81,3.14h-.02c.28,1.6-.04,2.95-.94,4.09-.76.96-1.91,1.7-3.46,2.22v.04s-7.22,1.86-7.22,1.86l-.81-3.14,4.68-1.2h0s1.57-.41,1.57-.41c1.35-.35,2.25-.8,2.7-1.36.35-.44.41-1.06.2-1.89l-.53-2.07c-.21-.82-.57-1.34-1.09-1.55-.65-.28-1.64-.24-2.96.09l-6.32,1.62-.81-3.14,4.68-1.2h0s1.57-.4,1.57-.4h.05s6.6-1.71,6.6-1.71Z"/>
    <path class="cls-5" d="M779.51,392.96l-3.14.81-1.74-6.76c-.69-2.68.61-4.83,2.66-6.13.73-.46,1.54-.81,2.38-1.02s1.72-.3,2.58-.25c2.42.15,4.59,1.4,5.28,4.09l1.74,6.76-3.14.81-1.74-6.76c-.27-1.06-1.21-1.57-2.28-1.66l1.42,5.51-3.14.81-1.42-5.51c-.89.59-1.47,1.49-1.2,2.55l1.74,6.76Z"/>
  </g>
</svg>