<?xml version="1.0" encoding="UTF-8"?>
<svg id="Layer_2" data-name="Layer 2" xmlns="http://www.w3.org/2000/svg" viewBox="0 0 1465.0766105276 977.4486206467">
  <defs>
    <style>
      .cls-1 {
        fill: #e1e1e1;
      }

      .cls-1, .cls-2, .cls-3, .cls-4, .cls-5, .cls-6, .cls-7, .cls-8 {
        stroke-width: 0px;
      }

      .cls-2 {
        fill: #ececec;
      }

      .cls-3 {
        fill: #014b92;
      }

      .cls-4 {
        fill: #f6f6f6;
      }

      .cls-5 {
        fill: #fff;
      }

      .cls-6 {
        fill: #001b2a;
      }

      .cls-7 {
        fill: #818181;
      }

      .cls-8 {
        fill: #c8002a;
      }
    </style>
  </defs>
  <g id="Layer_1-2" data-name="Layer 1">
    <path id="path15135" class="cls-3" d="M102.6260879223,232.0615421095L1.2720866342,266.1335441579l-1.2720866342,25.1995221775,245.9818874924,686.1155543113s314.7785653703-150.9627635247,527.2078593371-108.0421310968c212.4294447722,42.9208383094,239.9925580776-24.2434078875,309.9475506405-31.9291053153,69.9549925629-7.6856974278,270.6358996794,11.0414023914,330.6317393337-9.5669228908,59.9959629217-20.6079410573,50.8015533294-37.0121747949,50.8015533294-37.0121747949l-267.9290446661-625.0901598276L102.6260879223,232.0615421095Z"/>
    <path id="path16654" class="cls-7" d="M104.6734627743,261.5686890834l-72.2509521779,18.1322565514,239.0841915425,659.2657908573s146.2824174842-83.180688748,292.83235499-89.937588038c146.5502391167-6.7564875271,189.9557756026,9.2869826807,269.1052052958,18.0053406471,79.1492238117,8.7185087718,131.9980011878,1.2132750695,171.5677799439-23.5220880164,39.5695177986-24.7348555934,88.333678609-33.0658065982,177.1839550725-29.6599929362,88.8503866154,3.405100288,204.0006020222,23.0343954667,257.0987732645-24.4238716129-62.8279224887-121.7939573368-166.5164672829-310.030497428-166.5164672829-310.030497428L104.6734627743,261.5686890834Z"/>
    <path id="path6934" class="cls-1" d="M156.9865418093,101.2154096262l-55.9102212193,21.4334669007-36.2312167832,145.4194133771s205.3599358083,521.5316356071,221.4618584556,622.9750736236c110.0318536794-54.1384693155,298.9055879961-184.6382875436,479.4679006564-84.9579836187,93.511305759,51.6232051875,177.5765149452,26.7874240808,218.6769880849-4.9118772607,41.1004180638-31.6989446546,142.588673086-27.5587018448,199.0162881476-12.5209733638,56.4270800312,15.037645867,159.3218537653,32.1906388954,230.5495230689-.6948547828,11.7392686966-33.994522122,5.3476951982-82.5625729797,5.3476951982-82.5625729797l-228.5795638412-435.3065956784L156.9865418093,101.2154096262Z"/>
    <path id="path13236" class="cls-2" d="M1190.7849962823,270.0913042629L156.9826326755,101.213527848l-55.9045535748,21.4310553201,241.3738920995,648.8242909283s238.437708914-191.848982821,520.0763381914-36.7547405006c111.5627264065-61.1023800332,227.7248824914-84.9053243429,357.6852577406-55.0104963343,100.341982143,23.0817374711,153.4953850485,40.9356745134,197.6575491549,22.8395787006l-227.0861200048-432.4519116993Z"/>
    <path id="path1547" class="cls-4" d="M727.2546588739,145.0108114001S659.1117521706-26.9186019899,382.3494437234,3.6391550528c-188.2650415254,20.7865314031-235.8977862933,28.6440027596-235.8977862933,28.6440027596l185.9449578185,679.5028707315s98.588071001-63.4684412402,197.3622782238-69.5810404435c115.2928765337-7.1347195923,234.9850304761,18.4537905274,312.6083700398,90.9150044143,96.7377536864-56.8388596179,274.3648278965-75.5102752773,389.3279083547-27.8771218782,114.9630804582,47.6331533991,181.8255494207,8.6553315215,181.8255494207,8.6553315215l-220.1648364052-626.2246753116s-51.2085306524,27.6305038111-112.246005631,5.442544202c-61.0366506325-22.1883264493-283.9337914423-80.4101686217-353.8553008316,51.895092184l.0000804542-.0003518324Z"/>
    <path id="path14736" class="cls-6" d="M230.9510360505,147.8994645282c-3.2450746991-2.5839397255,22.7189934837-34.4833526911,90.3387418937-49.8778299597,37.0727617852-8.5971202589,79.8868969478-11.9533582266,128.8616992923-9.047352403l.1568255203.0119815056c49.1814957537,2.8752910366,92.7643729927,11.3242385453,129.5560412316,22.3861459471,62.8306816226,18.7155107996,97.1934178289,46.4763345828,94.8436378383,49.0445300118-2.3501091395,2.5679620096-37.9177973495-18.5363304688-99.6818675649-33.8122936909-36.135262018-8.8291132586-77.7246635792-15.7625610572-125.1759146272-18.5655147134l-.1567979823-.012159849c-47.3695787972-2.7240604473-87.4543723551-.7164669667-123.2743570339,5.6386342487-61.3919305554,11.157251788-92.5314710482,36.5762409009-95.4739765164,34.2334851794l.0059679485.0003737234Z"/>
    <path id="path14740" class="cls-6" d="M267.069758097,216.913370725c-1.6010783247-2.3030662768,16.0933637574-15.1159639111,50.958760742-25.3854102981,36.6568884421-10.7971560416,85.4120128256-16.2220324954,144.8288201259-10.2242882237,0,0,.6848362163.060826965.6869763379.061157421,54.7650749601,5.4781348158,109.0359373971,18.495655945,142.5571359045,27.2717155126,35.725887462,9.352946658,57.4502083169,16.2683761891,56.8864314379,18.8327942858-.5636260735,2.5646239782-23.5156755495.2655374063-59.9581157792-5.7168668208-31.1237867814-5.108564-91.5478444146-16.555101762-140.9856311682-21.4175314175l-.660568389-.0559841989c-57.4417710104-5.4791422749-101.9805156937-2.7366805148-138.496020376,4.1482842052-34.2065771645,6.4497514074-54.2164233227,14.7908835165-55.8167882735,12.4879273916l-.0010005623-.0017978572Z"/>
    <path id="path14744" class="cls-6" d="M313.843462321,306.0802197657c-2.926365852-4.7437695921,68.6908476374-40.3861988343,169.4929555835-41.052097462,100.8019571407-.6661045091,181.1483893409,24.2536388253,180.0210139265,29.3825025568-1.1273478765,5.128685388-82.0929439177-10.5248035539-178.8412699439-10.2430798103-96.7484768317.2815178621-167.7465946715,26.6569517999-170.6727821801,21.9132097459l.000082614-.0005350304Z"/>
    <path id="path14748" class="cls-6" d="M356.828119083,412.4826033551c-1.905893135-2.1288268213,12.4980217476-16.0085569575,43.4567246089-28.553993917,32.3889504505-13.1247265409,77.5004509651-21.9309429534,133.0500237365-19.0335411273l.8215338031.0494324061c51.8780439482,2.6779609075,101.621338251,13.2838165342,133.6073537782,21.229210346,33.4323065623,8.3040187963,53.5846950107,15.000463847,53.0209456697,17.5647036003-.5635709975,2.5642672913-21.9024028382.5053302916-55.807387953-4.3839160413-30.9813429816-4.4677527534-83.1917733698-12.9858659719-131.0675688066-15.3476706683l-.7868263251-.0424298678c-52.9431484118-2.4259229886-94.0904213427,3.2886400569-126.5034004077,12.4111777202-30.5964854032,8.6114702889-47.8869474462,18.2392835498-49.7928130432,16.1102783851l.0014149393-.0032508359Z"/>
    <path id="path14752" class="cls-6" d="M391.9280906378,495.2846022445c-2.5725905423-4.2098297148,58.6602090117-39.7953733041,153.7955715522-40.4548844651l.3588741573-.0052080228c47.5125428271-.4202549294,87.0767607742,8.8369824735,115.7189704603,20.8061167893,27.5605625809,11.5170855617,41.2036015526,23.4462538354,39.5655093921,25.5986481486-1.638298042,2.1525451187-17.7566270604-5.5382505599-44.8523291466-13.1988978988-28.5417597928-8.0692674919-64.3234682127-14.2675471465-109.2165741994-14.1092992326l-.3395724092.0091013816c-86.4062259538.626588191-152.1273052927,26.1114060836-155.0311789101,21.3579626312l.0007291034-.0035393314Z"/>
    <path id="path14756" class="cls-6" d="M389.7764398169,587.4240771946c-1.5004415896-2.3552699402,15.4548918663-13.5909101399,47.8227672401-23.349636724,34.7060926808-10.464041058,77.9727761331-16.3821515909,133.3232896436-16.604091191.9404874536-.004325239,1.8802733417-.00528949,2.8173290019-.0063101241,39.3260649907-.1802880463,73.7155150466,3.4351133046,104.0030881379,10.2874407913,52.5914169786,11.6346873658,78.6170404056,33.0155869803,75.6325938469,36.2777007661-2.3175326796,2.5331862947-30.162221845-12.893320241-78.8282986122-20.808275952-29.4328817898-4.6289046042-61.3143683893-6.8383506981-99.6351744812-6.6620641063.0173281615.000119301-2.7707878915.0253652463-2.7532263105.0251553983-55.4913845184.5619096226-93.8187956241,3.7385003421-129.6365175842,10.4443519153-32.114669986,6.0127996438-51.243872393,12.7505060965-52.7455348488,10.3948650468l-.0003160334.0008641793Z"/>
    <path id="path14760" class="cls-6" d="M786.1016661955,175.2060511376c-2.262170333-1.8566282147,10.6812218577-19.4510969701,42.7178772283-36.8443453903,33.0682884063-17.9535633677,83.0394384983-32.529708388,144.9485190493-30.0939365436.3009033809.0024569163.5988877342.0238182404.9016978172.0269347616,118.8528544823,4.7117990423,205.0258104313,53.7997387723,202.4720186179,58.4802877908-2.5523926037,4.6809476659-90.0551571671-35.1491276903-202.4168729439-39.4047741846-.2813302192-.0180593786-.5663203779-.017146158-.8495848373-.035686798-57.7184552274-1.9749453707-103.9130890901,8.9786064668-137.0255579343,22.7506645545-31.9386553191,13.2842761972-48.4827637158,26.9640951487-50.7450442008,25.1081803079l-.0030527965.0126755018Z"/>
    <path id="path14764" class="cls-6" d="M830.8857191806,245.9708187978c-1.6853996211-1.7321455648,18.9299221137-26.7221601414,73.0345948574-35.1060377795,27.067357854-4.2011228769,56.969261893-3.8466676408,90.6029570186.6059171305.8071798816.1045510396,1.6165956143.2099951035,2.4209797358.3338347757,46.0692992065,6.2942489136,93.6880105291,19.6949805988,121.2013753131,27.7761806243,30.2455834914,8.8826978834,48.7384657638,15.0356758774,48.1748947662,17.5999431686-.563804417,2.5645964402-20.3828268324,1.000714383-51.6313735538-4.5722818776-31.2487250649-5.5730237986-73.5475287709-15.6684610815-120.1726981577-21.9470186903-.7747633307-.0980848387-1.5425057341-.2144407111-2.313139627-.3120705194-32.4346748555-4.2238038334-59.4063013444-5.5927683503-84.7227316411-3.3252139299-47.052514779,4.2074736216-73.9589222795,21.6595790879-76.5964113407,18.950889651l.0015526292-.0041425533Z"/>
    <path id="path14768" class="cls-6" d="M875.1292518683,319.197872744c-1.3410105521-2.4157417646,13.7680221075-11.806126109,42.5809427013-17.9900336595,30.5080216683-6.5473745421,69.6876543048-7.7742693612,116.9917087013-.1700509585l.5067262576.0826258401c36.7113240363,5.7807051962,92.646523425,19.2146223762,112.6727600416,23.7137705209,28.2739884266,6.350415095,46.2079048165,9.8689615204,46.0753217923,12.4990472346-.1316401974,2.6121543308-18.5309376836,3.8316819651-48.2743007339.7476174715-29.6180662845-3.0712908757-69.8908800886-11.2989110845-113.4587198421-18.1790489365.0005350304.000082614-.4884670323-.0790760527-.4884670323-.0790760527-46.0463008439-7.0486521074-80.438018799-8.1151863624-110.6132430102-5.4436909366-27.7615575583,2.4578749304-44.6513354055,7.2368315148-45.9924967632,4.8208838687l-.0002321125-.0020443921Z"/>
    <path id="path14772" class="cls-6" d="M878.8188088484,421.3683614399c-1.3475673-2.4182149562,14.4057751023-12.0505652911,44.1572769238-19.4113562234,30.9946388125-7.6684198699,72.3921223017-11.2417595056,121.7052167513-4.998257858l.066468345.0082548181c45.2575785217,5.6905107195,90.7406195275,17.653483638,118.0944004339,25.3999949923,29.5024202546,8.3552800561,47.4592492929,14.4393633956,46.8959392528,17.0031231945-.5635434595,2.5640889478-19.7848766061,1.0826358618-50.1524464706-3.9330807921-30.367363983-5.0158674594-71.5798076083-13.9495095127-116.99071545-19.5729457785l-.066495883-.0080764747c-47.2287022906-5.7898168555-84.7448276387-4.6330887933-115.5539123262-.7632214731-29.0913311054,3.65414863-46.8099883653,8.6925859157-48.1582965771,6.2744391511l.0025650001.0011264438Z"/>
    <path id="path14776" class="cls-6" d="M921.9869757533,540.6651325345c-6.043479267-1.6642857807,2.7271195422-28.9063167406,49.1566419901-44.9748041522,27.886165334-10.6119788586,60.9044136421-17.2970771462,100.7082253134-20.3041276118.0009192553-.0000406535.8188374662-.0620020646.8188374662-.0620020646,40.3178130059-3.0803335045,75.5141636976-1.4694035036,105.9319674234,3.5615561752,16.6919405743,2.738997815,29.9472102287,6.303659828,41.0830104221,10.8267104707,19.0796529031,7.4768319181,25.0599942007,16.7634997912,23.2875869497,18.0888123216-1.6700422027,1.2489079242-9.7531695709-3.9898338914-27.0570287849-8.2031930049-11.0858472682-2.5276016294-22.7273297509-4.1955187732-39.0503303987-5.5858672845-29.6253471232-2.4813531264-61.8689247892-2.6307917576-101.2089544739.3361227214.0012759423.0000144225-.7908900035.0619351346-.7908900035.0619351346-38.8996012705,3.0555542855-69.031536706,7.7904908539-96.5073164104,15.743519394-39.3410162037,12.7812760756-52.803046056,31.4936718303-56.3716118035,30.5104461832l-.00013769.0008917173Z"/>
    <path id="path14780" class="cls-6" d="M923.0832344526,618.0318116383c-1.7085807722-2.6888740371,20.0760256593-18.5469550063,62.9003374504-32.3364128068,31.4314694873-10.1154930101,71.5325038085-19.4417496552,118.080985598-23.863997661,110.495496667-10.4982880375,196.3787541354,13.928475098,195.2486550734,19.0702477507-1.1187376329,5.0894786698-87.5194547149-10.0934884166-191.8000960672-.1748462305-45.0554761766,4.2855830702-83.7319998479,11.7156977475-115.5466700461,19.122741103-41.225329257,9.5087158235-67.1743571633,20.8717319881-68.882676978,18.1823504586l-.0005350304-.000082614Z"/>
    <path id="path129811" class="cls-8" d="M744.7581724011,118.9867629163c-20.5470429933-5.6489182621-40.3487198327,6.8872807785-37.805892316,29.393239394,2.5425557332,22.5058802975,56.7775165439,247.0536679071,64.5529898709,277.6933600813,7.7753742269,30.6397195947,10.714396571,75.5088755951,10.714396571,75.5088755951l13.3559466433-32.7522005985,21.7391374538,25.9787080885s-1.9664003633-49.7901537234-11.0832156573-86.330668215c-9.1165918769-36.540523699-61.334201755-231.7832620757-64.6697256006-253.3195607197-3.3359223135-21.5361927039-8.853846475-28.5825822502,3.1965565005-36.1714035242l-.0001934656-.0003501015Z"/>
    <g>
      <path class="cls-5" d="M760.8776206381,270.471761982l1.5708614083-.4038775536.8077551073,3.1417228166-3.8708918557.9952286846,1.1363677023,4.4198449584c.47833889,1.8604750267.2094203244,3.4133298793-.8018274704,4.6966181973-.7599215388.9643715394-1.914765371,1.6958157896-3.4640449421,2.2169622572l.0094827419.0368826471-7.2312314277,1.8591914241-.8077551073-3.1417228166,4.6842747839-1.2043541399-.0006658584-.0025898227,1.5708614083-.4038775536c1.3480473541-.3465907716,2.2493335991-.7951994587,2.6962328028-1.3625260682.3462421292-.4392894009.4147850625-1.0629081902.2030191343-1.8865611048l-1.1363677023-4.4198449584-9.7584518366,2.5089544082-.8077551072-3.1417228166,9.7584518366-2.5089544082-.0040410716-.0157175445,3.1417228166-.8077551073.0040410716.0157175445,2.3000304474-.591351131-.0000688819-.0002679127Z"/>
      <path class="cls-5" d="M766.7045799843,286.6217630496c.2230625602.8675905959-.2993932588,1.7516764017-1.1669838547,1.9747389619-.8676799001.2230855208-1.7516764017-.2993932588-1.9747389619-1.1669838547-.2230855208-.8676799001.2993039545-1.7516534411,1.1669838547-1.9747389619.8675905959-.2230625602,1.7516534411.2993039545,1.9747389619,1.1669838547ZM762.429810575,286.0461303259l.8077551072,3.1417228166-12.9001746532,3.3167095155-.8077551073-3.1417228166,12.9001746532-3.3167095155Z"/>
      <path class="cls-5" d="M762.22021628,291.7445877723l1.5708614083-.4038775536.8077551073,3.1417228166-.4293747386.1103947287c.7873039468,1.0332782889.6495672195.7460328384,1.0331705332,2.2380386115.4135669412,1.6085477934.5240715291,2.6941598733-.5290866515,4.3158327459,1.7048039367.9128704833,2.1314863439,1.9166201719,2.5451221671,3.525435878.4484441444,1.744200919.5178956429,3.0219287682-.8018504311,4.6965288931-.7599215388.9643715394-1.9147424104,1.6959050938-3.4640219814,2.2170515614l.0094827419.0368826471-7.2312314277,1.8591914241-.8077551073-3.1417228166,4.6842747839-1.2043541399-.0006658584-.0025898227,1.5708614083-.4038775536c1.3480473541-.3465907716,2.2493335991-.7951994587,2.6962328028-1.3625260682.3462191685-.4393787052.4147850625-1.0629081902.2030191343-1.8865611048s-.5725977335-1.3368769752-1.0877842083-1.5546880997c-.6548677377-.2771058059-1.6397557153-.2410538137-2.9561891401.0907443059l-6.3182742829,1.6244648618-.8077551073-3.1417228166,4.6845426966-1.2044230218-.000688819-.0026791269,1.5708614083-.4038775536c1.3480473541-.3465907716,2.2493335991-.7951994587,2.6962328028-1.3625260682.3462421292-.4392894009.4147850625-1.0629081902.2030191343-1.8865611048s-.5725977334-1.3368769752-1.0877842083-1.5546880997c-.6548677377-.2771058059-1.6397557153-.2410538137-2.9561891401.0907443059l-6.3182742829,1.6244648618-.8077551072-3.1417228166,11.3293132449-2.9128319618-.0000688819-.0002679127Z"/>
      <path class="cls-5" d="M767.7618004039,322.4881578936l.8077551073,3.1417228166-9.1130501654,2.3430179056-.8077551072-3.1417228166.5421659812-.1393940096c-.5329842606-.6325292257-.9355505251-1.3906553656-1.1545949743-2.2426177212l-.5279338596-2.0533721638c-.6898063299-2.6829669863.6148587072-4.8276328334,2.6568446973-6.1263909355.7263744579-.4620000782,1.5422116576-.809331439,2.3810462914-1.025000675s1.7208494576-.3048654505,2.5799823017-.2505084699c2.4150988323.1528158153,4.5924950329,1.4022235786,5.2823013628,4.0851905649l.9318114132,3.6242335721-3.1417228166.8077551073-.9318114132-3.6242335721c-.2782599245-1.0822779652-1.2497742241-1.5922522046-2.3432948933-1.6613702628-.5053134242-.0320290249-1.0421693684.0250733328-1.5695108474.160655877-.5272521748.1355595837-1.0253429537.3445480145-1.4522763881.6162630986-.9245763236.5879824673-1.5296389031,1.503303741-1.2513789786,2.5855817061l.5279338596,2.0533721638c.1680259203.6535283562.589731592,1.1798540713,1.1330935349,1.5009570762.5434308248.3213709176,1.2075509199.4367204636,1.8612578846.2686486221l3.5891370096-.922787884ZM771.0112913495,325.0023819262c-.7432791075.1911013575-1.5006178817-.2564525415-1.6917192392-.999731649-.1910324756-.7430111948.2565214234-1.500349969.9998005309-1.6914513265.7430111948-.1910324756,1.5002810871.2562535107,1.6913824446.9995326182s-.2561846288,1.5005489997-.9994637363,1.6916503573Z"/>
      <path class="cls-5" d="M776.7233608266,325.5893066573l.8077545434,3.1417206235-10.4491307526,2.6865319522c-1.1195178291.2878345089-1.8505297602.6581066854-2.27933711,1.1080560449-.349566797.3667391774-.5131795959.8431417808-.5469485634,1.4161190789l-.0952306226,1.6140694646-3.2284068419-.1903923633.0952306226-1.6140694646c.0785925339-1.3325473536.506771283-2.4896319255,1.4338742585-3.4629024792.8479976482-.8899047237,2.0790434767-1.5667742727,3.8130637134-2.0126009048l10.4491307526-2.6865319522Z"/>
      <path class="cls-5" d="M774.7682813187,334.0359910012l.8077551073,3.1417228166-.4293747385.1103947287c.3796523848.4982931812.6797627268,1.0915845871.9015735544,1.7817445298l.0133956345-.0034440951.8077551073,3.1417228166-.0238442295.0061304893c.2751192013,1.5899704167-.0374387559,2.9408755229-.9350339782,4.0796467738-.7599215388.9643715394-1.914765371,1.6958157896-3.4640449421,2.2169622572l.0094827419.0368826471-7.2312314277,1.8591914241-.8077551073-3.1417228166,4.6842747839-1.2043541399-.0006658584-.0025898227,1.5708614083-.4038775536c1.3480473541-.3465907716,2.2493335991-.7951994587,2.6962328028-1.3625260682.3462421292-.4392894009.4147850625-1.0629081902.2030191343-1.8865611048l-.5326407896-2.0716795309c-.2117659282-.8236529146-.5725977334-1.3368769752-1.0877842083-1.5546880997-.6548677377-.2771058059-1.6397557152-.2410538137-2.9561202582.0910122186l-6.3182742829,1.6244648618-.8077551073-3.1417228166,4.6845426966-1.2044230218-.0000694737-.0002702146,1.5708614083-.4038775536.0477579326-.011990764,6.5970820894-1.6961479614Z"/>
      <path class="cls-5" d="M760.4127329316,357.0402114478l-.8077551073-3.1417228166,19.0132278152-4.8884108401,1.9481638812,7.5772853195c.6897604087,2.6827883778-.6149250508,4.8277450982-2.6568217366,6.1264802397-.7263974185.4619107739-1.5422116576.809331439-2.3808676829,1.0249547537-.8388346338.215669236-1.720783114.3047531856-2.5798929975.2504855093-2.4154560493-.1527239728-4.5925639148-1.4024914913-5.2823243234-4.0852798692l-.6853749276-2.6657312699,3.1417228166-.8077551073.6853749276,2.6657312699c.2782828852,1.0823672694,1.2497971847,1.5923415088,2.3435857666,1.6613906851.5050225509.0320086026,1.0421693684-.0250733328,1.5694215432-.1606329164.527341479-.1355825443,1.0254092973-.3446602793,1.4523656923-.6162860593.9245763236-.5879824673,1.5296389031-1.503303741,1.2513560179-2.5856710103l-1.1404087739-4.4355625029-15.8717729113,4.0807246148Z"/>
      <path class="cls-5" d="M782.4004879325,363.7210743189l.8077551073,3.1417228166-.4293747385.1103947287c.3796523848.4982931812.6797627268,1.0915845871.9015735544,1.7817445298l.0133956345-.0034440951.8077551073,3.1417228166-.0238442295.0061304893c.2751421619,1.5900597209-.0374157953,2.9409648271-.9350339782,4.0796467738-.7599215388.9643715394-1.9147424104,1.6959050938-3.4640219814,2.2170515614l.0094827419.0368826471-7.2312314277,1.8591914241-.8077551073-3.1417228166,4.6842747839-1.2043541399-.0006658584-.0025898227,1.5708614083-.4038775536c1.3480473541-.3465907716,2.2493335991-.7951994587,2.6962098422-1.3626153724.3462421292-.4392894009.4148080231-1.0628188859.2030420949-1.8864718006l-.5326637502-2.0717688352c-.2117659282-.8236529146-.5725747728-1.336787671-1.0877842083-1.5546880997-.6548677377-.2771058059-1.6397327546-.2409645095-2.9561202582.0910122186l-6.3182742829,1.6244648618-.8077551072-3.1417228166,4.6845426966-1.2044230218-.0000688819-.0002679127,1.5708614083-.4038775536.0477573408-.0119930659,6.5970820894-1.6961479614Z"/>
      <path class="cls-5" d="M779.5137405873,392.957177334l-3.1417228166.8077551073-1.7388317802-6.7630986533c-.6897604087-2.6827883778.6148357465-4.8277221376,2.6568217366-6.1264802397.7263974185-.4619107739,1.5419667056-.8091732529,2.3808013393-1.0248424889.838923938-.2156921966,1.7208494576-.3048654505,2.5802272538-.250666656,2.4150988323.1528158153,4.5924950329,1.4022235786,5.2823243234,4.0852798692l1.7388317802,6.7630986533-3.1417228166.8077551073-1.7388317802-6.7630986533c-.2727493723-1.0608449499-1.2115505182-1.5717085346-2.2784735249-1.6566145145l1.4168088871,5.5106068255-3.1417228166.8077551073-1.4168088871-5.5106068255c-.8935727577.5889607801-1.4692820509,1.4892137583-1.1965326786,2.5500587082l1.7388317802,6.7630986533Z"/>
    </g>
  </g>
</svg>